<svg width="27" height="20" fill="none" xmlns="http://www.w3.org/2000/svg"><path d="M2.389 2.286l8.483 5.93.002.002c.942.64 1.414.96 1.93 1.083.456.11.936.11 1.392 0 .516-.124.989-.445 1.933-1.085 0 0 5.44-3.866 8.482-5.93M1 14.886V5.115c0-1.44 0-2.161.303-2.711A2.682 2.682 0 012.516 1.28C3.111 1 3.89 1 5.445 1h16.11c1.556 0 2.333 0 2.928.28.522.247.948.64 1.215 1.124C26 2.954 26 3.673 26 5.11v9.78c0 1.438 0 2.156-.302 2.706a2.687 2.687 0 01-1.215 1.124c-.594.28-1.37.28-2.923.28H5.44c-1.553 0-2.33 0-2.924-.28a2.684 2.684 0 01-1.213-1.124C1 17.046 1 16.326 1 14.886z" stroke="#fff" stroke-width="1.066" stroke-linecap="round" stroke-linejoin="round"/></svg>