<svg width="15" height="19" fill="none" xmlns="http://www.w3.org/2000/svg"><path d="M1 7.428c0 4.506 3.941 8.231 5.686 9.66.25.204.376.308.562.36.145.04.359.04.504 0 .186-.052.312-.155.562-.36C10.06 15.659 14 11.934 14 7.428c0-1.704-.685-3.34-1.904-4.545A6.537 6.537 0 007.5 1a6.537 6.537 0 00-4.596 1.883A6.392 6.392 0 001 7.428z" stroke="#EE7828" stroke-width="1.857" stroke-linecap="round" stroke-linejoin="round"/><path d="M5.643 6.571a1.857 1.857 0 103.714 0 1.857 1.857 0 00-3.714 0z" stroke="#EE7828" stroke-width="1.857" stroke-linecap="round" stroke-linejoin="round"/></svg>