<svg width="27" height="27" fill="none" xmlns="http://www.w3.org/2000/svg"><path d="M4.839 4.839c4.881-4.882 12.796-4.882 17.677 0 4.882 4.881 4.882 12.796 0 17.678-4.881 4.881-12.796 4.881-17.677 0-4.882-4.882-4.882-12.797 0-17.678z" fill="#fff"/><path d="M15.642 17.606l3.928-3.928m0 0l-3.928-3.929m3.928 3.929H7.785m14.732-8.84c-4.882-4.88-12.797-4.88-17.678 0-4.882 4.882-4.882 12.797 0 17.679 4.881 4.881 12.796 4.881 17.677 0 4.882-4.882 4.882-12.797 0-17.678z" stroke="#EE7828" stroke-width="1.28" stroke-linecap="round" stroke-linejoin="round"/></svg>