<svg width="16" height="18" fill="none" xmlns="http://www.w3.org/2000/svg"><path d="M10.625 6.25l-3.5 3.5L5.375 8M15 7.27c0 5.747-4.347 8.323-6.19 9.157l-.002.002c-.194.087-.291.131-.511.169-.14.024-.453.024-.593 0a1.762 1.762 0 01-.514-.17C5.347 15.592 1 13.016 1 7.268V3.8c0-.98 0-1.47.19-1.845a1.75 1.75 0 01.765-.764C2.33 1 2.82 1 3.8 1h8.4c.98 0 1.47 0 1.844.19.33.169.598.436.765.765C15 2.33 15 2.82 15 3.797V7.27z" stroke="#EE7828" stroke-width="1.75" stroke-linecap="round" stroke-linejoin="round"/></svg>